<?xml version="1.0" standalone="no"?>
<!DOCTYPE svg PUBLIC "-//W3C//DTD SVG 20010904//EN"
 "http://www.w3.org/TR/2001/REC-SVG-20010904/DTD/svg10.dtd">
<svg version="1.0" xmlns="http://www.w3.org/2000/svg"
 width="562.000000pt" height="475.000000pt" viewBox="0 0 562.000000 475.000000"
 preserveAspectRatio="xMidYMid meet">

<g transform="translate(0.000000,475.000000) scale(0.100000,-0.100000)"
fill="#000000" stroke="none">
<path d="M2445 4384 c-418 -64 -791 -251 -1085 -544 -303 -302 -495 -684 -555
-1105 -19 -128 -19 -402 0 -530 104 -728 611 -1337 1307 -1569 209 -70 376
-96 608 -96 236 0 396 26 609 96 572 190 1033 651 1225 1226 70 209 96 376 96
608 0 91 -7 210 -15 265 -122 856 -794 1528 -1650 1650 -126 18 -420 18 -540
-1z m545 -161 c486 -71 928 -353 1206 -768 172 -259 271 -549 293 -860 57
-818 -441 -1554 -1227 -1815 -334 -111 -746 -111 -1083 0 -542 178 -953 583
-1143 1127 -119 343 -119 783 1 1127 187 538 595 943 1129 1122 258 86 539
109 824 67z"/>
<path d="M2015 3361 c-94 -23 -172 -87 -217 -179 -29 -59 -33 -76 -33 -147 0
-71 4 -88 33 -147 36 -73 86 -123 161 -160 66 -33 206 -33 272 0 106 52 180
154 194 269 14 111 -50 251 -143 313 -79 52 -180 72 -267 51z m148 -165 c71
-29 117 -114 103 -188 -31 -167 -249 -198 -326 -47 -72 141 76 297 223 235z"/>
<path d="M3265 3361 c-96 -25 -172 -88 -216 -177 -28 -57 -33 -76 -32 -142 0
-139 63 -245 184 -309 48 -24 65 -28 144 -28 80 0 97 3 148 29 238 121 244
465 10 593 -51 28 -76 35 -135 38 -40 2 -86 1 -103 -4z m142 -162 c38 -14 83
-57 99 -96 40 -94 -14 -204 -116 -234 -159 -48 -287 153 -177 278 51 58 125
78 194 52z"/>
<path d="M2330 2072 c-54 -55 -48 -68 120 -237 83 -83 150 -155 150 -160 0 -5
-61 -70 -135 -145 -148 -149 -157 -168 -110 -215 17 -18 35 -25 61 -25 33 0
48 11 176 137 l139 138 134 -138 c123 -126 137 -137 170 -137 44 0 85 37 85
77 0 23 -24 52 -140 163 -77 75 -140 140 -140 145 0 5 68 77 150 160 168 169
174 182 120 237 -25 24 -36 29 -58 23 -16 -4 -86 -65 -179 -158 l-153 -152
-152 152 c-94 93 -164 154 -180 158 -22 6 -33 1 -58 -23z"/>
</g>
</svg>
